<svg id="Layer_1" data-name="Layer 1" xmlns="http://www.w3.org/2000/svg" viewBox="0 0 185.6 153.6"><defs><style>.cls-1{fill:#fff;}</style></defs><title>browser</title><path class="cls-1" d="M-68-52V101.6H117.6V-52ZM111.2,95.2H-61.6V-20H111.2Zm0-121.6H-61.6V-45.6H111.2Zm0,0" transform="translate(68 52)"/><path class="cls-1" d="M-45.6-36A6.39,6.39,0,0,1-52-29.6,6.39,6.39,0,0,1-58.4-36,6.39,6.39,0,0,1-52-42.4,6.39,6.39,0,0,1-45.6-36Zm0,0" transform="translate(68 52)"/><path class="cls-1" d="M-29.6-36A6.39,6.39,0,0,1-36-29.6,6.39,6.39,0,0,1-42.4-36,6.39,6.39,0,0,1-36-42.4,6.39,6.39,0,0,1-29.6-36Zm0,0" transform="translate(68 52)"/><path class="cls-1" d="M-13.6-36A6.4,6.4,0,0,1-20-29.6,6.39,6.39,0,0,1-26.4-36,6.39,6.39,0,0,1-20-42.4,6.4,6.4,0,0,1-13.6-36Zm0,0" transform="translate(68 52)"/><path class="cls-1" d="M9.14,74.14a3.13,3.13,0,0,0,1.26.26,3.2,3.2,0,0,0,2.94-1.94l28.8-67.2a3.2,3.2,0,0,0-5.88-2.52L7.46,69.94a3.2,3.2,0,0,0,1.68,4.2Zm0,0" transform="translate(68 52)"/><path class="cls-1" d="M-30.92,38.73.35,57.94a3.22,3.22,0,0,0,4.41-1,3.21,3.21,0,0,0-1-4.4L-23.13,36,3.71,19.51A3.2,3.2,0,1,0,.35,14.06L-30.92,33.27A3.2,3.2,0,0,0-32.45,36a3.2,3.2,0,0,0,1.53,2.73Zm0,0" transform="translate(68 52)"/><path class="cls-1" d="M46.25,19.51,73.09,36,46.25,52.49a3.2,3.2,0,0,0,3.35,5.45L80.88,38.73a3.21,3.21,0,0,0,0-5.46L49.6,14.06a3.2,3.2,0,1,0-3.35,5.45Zm0,0" transform="translate(68 52)"/></svg>